/* XPM */
static char *dummy[]={
"30 30 12 1",
". c None",
"# c #000000",
"b c #000000",
"d c #000000",
"i c #000000",
"g c #000000",
"j c #000000",
"a c #000000",
"f c #000000",
"h c #000000",
"e c #000000",
"c c #000000",
"..............................",
"....#ab.......................",
"...#cccd......................",
"..#eccccb.....................",
".#cccccccd....................",
".fccccccccb...................",
".bcccccccccd..................",
"..dcccccccccb.................",
"...bcccccccccd................",
"....dcccccccccb...............",
".....bcccccccccd..............",
"......dcccccccccb.............",
".......bcccccccccd....gccccca.",
"........dcccccccccb...gccccca.",
".........bcccccccccd..gccccca.",
"..........dcccccccccb.gccccca.",
"...........bcccccccccdgccccca.",
"............dccccccccchccccca.",
".............bcccccccccccccca.",
"..............dccccccccccccca.",
"...............bcccccccccccca.",
"................dccccccccccca.",
"...........biiiiihcccccccccca.",
"...........fcccccccccccccccca.",
"...........fcccccccccccccccca.",
"...........fcccccccccccccccca.",
"...........fcccccccccccccccca.",
"...........fcccccccccccccccca.",
"...........jffffffffffffffffj.",
".............................."};
