/* XPM */
static char *dummy[]={
"30 30 12 1",
". c None",
"b c #000000",
"# c #000000",
"c c #000000",
"h c #000000",
"j c #000000",
"g c #000000",
"f c #000000",
"a c #000000",
"i c #000000",
"e c #000000",
"d c #000000",
"..............................",
".......................#ab....",
"......................cdddb...",
".....................#ddddeb..",
"....................cdddddddb.",
"...................#ddddddddf.",
"..................cddddddddd#.",
".................#dddddddddc..",
"................cddddddddd#...",
"...............#dddddddddc....",
"..............cddddddddd#.....",
".gaaaaa#.....#dddddddddc......",
".adddddh....cddddddddd#.......",
".adddddh...#dddddddddc........",
".adddddh..cddddddddd#.........",
".adddddh.#dddddddddc..........",
".adddddhcddddddddd#...........",
".adddddidddddddddc............",
".adddddddddddddd#.............",
".adddddddddddddc..............",
".adddddddddddd#...............",
".adddddddddddc................",
".addddddddddijjjjj............",
".adddddddddddddddd............",
".adddddddddddddddd............",
".adddddddddddddddd............",
".adddddddddddddddd............",
".adddddddddddddddd............",
".gffffffffffffffff............",
".............................."};
