/* XPM */
static char *dummy[]={
"30 30 12 1",
". c None",
"i c #000000",
"g c #000000",
"f c #000000",
"h c #000000",
"d c #000000",
"a c #000000",
"# c #000000",
"c c #000000",
"e c #000000",
"j c #000000",
"b c #000000",
"..............................",
"............################a.",
"............bbbbbbbbbbbbbbbbc.",
"............bbbbbbbbbbbbbbbbc.",
"............bbbbbbbbbbbbbbbbc.",
"............bbbbbbbbbbbbbbbbc.",
"............bbbbbbbbbbbbbbbbc.",
"............dddddebbbbbbbbbbc.",
"................fbbbbbbbbbbbc.",
"...............gbbbbbbbbbbbbc.",
"..............fbbbbbbbbbbbbbc.",
".............gbbbbbbbbbbbbbbc.",
"............fbbbbbbbbbebbbbbc.",
"...........gbbbbbbbbbfhbbbbbc.",
"..........fbbbbbbbbbg.hbbbbbc.",
".........gbbbbbbbbbf..hbbbbbc.",
"........fbbbbbbbbbg...hbbbbbc.",
".......gbbbbbbbbbf....hbbbbbc.",
"......fbbbbbbbbbg.....gccccca.",
".....gbbbbbbbbbf..............",
"....fbbbbbbbbbg...............",
"...gbbbbbbbbbf................",
"..fbbbbbbbbbg.................",
".gbbbbbbbbbf..................",
".#bbbbbbbbg...................",
".ibbbbbbbf....................",
"..ijbbbbg.....................",
"...ibbbf......................",
"....icg.......................",
".............................."};
