/* XPM */
static char *dummy[]={
"30 30 12 1",
". c None",
"i c #000000",
"f c #000000",
"g c #000000",
"e c #000000",
"h c #000000",
"# c #000000",
"b c #000000",
"a c #000000",
"d c #000000",
"j c #000000",
"c c #000000",
"..............................",
".#aaaaaaaaaaaaaaaa#...........",
".bcccccccccccccccca...........",
".bcccccccccccccccca...........",
".bcccccccccccccccca...........",
".bcccccccccccccccca...........",
".bcccccccccccccccca...........",
".bccccccccccdeeeeef...........",
".bcccccccccccg................",
".bccccccccccccf...............",
".bcccccccccccccg..............",
".bccccccccccccccf.............",
".bcccccdcccccccccg............",
".bccccchgcccccccccf...........",
".bccccch.fcccccccccg..........",
".bccccch..gcccccccccf.........",
".bccccch...fcccccccccg........",
".bccccch....gcccccccccf.......",
".............fcccccccccg......",
"..............gcccccccccf.....",
"...............fcccccccccg....",
"................gcccccccccf...",
".................fcccccccccg..",
"..................gcccccccccf.",
"...................fcccccccca.",
"....................gccccccci.",
".....................fccccji..",
"......................gccci...",
".......................fbi....",
".............................."};
